<?xml version="1.0" encoding="UTF-8" standalone="no"?>
<!DOCTYPE svg PUBLIC "-//W3C//DTD SVG 1.1//EN" "http://www.w3.org/Graphics/SVG/1.1/DTD/svg11.dtd">
<svg width="100%" height="100%" viewBox="0 0 1540 1420" version="1.1" xmlns="http://www.w3.org/2000/svg" xmlns:xlink="http://www.w3.org/1999/xlink" xml:space="preserve" xmlns:serif="http://www.serif.com/" style="fill-rule:evenodd;clip-rule:evenodd;stroke-linejoin:round;stroke-miterlimit:2;">
    <g transform="matrix(1,0,0,1,720,140)">
        <path d="M0,0L80,0L80,20L120,20L120,40L160,40L160,60L200,60L200,80L240,80L240,100L280,100L280,120L320,120L320,140L360,140L360,160L400,160L400,180L440,180L440,200L480,200L480,220L520,220L520,240L560,240L560,260L580,260L580,280L600,280L600,900L580,900L580,920L560,920L560,940L520,940L520,960L480,960L480,980L440,980L440,1000L400,1000L400,1020L360,1020L360,1040L320,1040L320,1060L280,1060L280,1080L240,1080L240,1100L200,1100L200,1120L160,1120L160,1140L120,1140L120,1160L80,1160L80,1180L0,1180L0,1160L-40,1160L-40,1140L-80,1140L-80,1120L-120,1120L-120,1100L-160,1100L-160,1080L-200,1080L-200,1060L-240,1060L-240,1040L-280,1040L-280,1020L-320,1020L-320,1000L-360,1000L-360,980L-400,980L-400,960L-440,960L-440,940L-480,940L-480,920L-500,920L-500,900L-520,900L-520,280L-500,280L-500,260L-480,260L-480,240L-440,240L-440,220L-400,220L-400,200L-360,200L-360,180L-320,180L-320,160L-280,160L-280,140L-240,140L-240,120L-200,120L-200,100L-160,100L-160,80L-120,80L-120,60L-80,60L-80,40L-40,40L-40,20L0,20L0,0ZM0,40L0,60L-40,60L-40,80L-80,80L-80,100L-120,100L-120,120L-160,120L-160,140L-200,140L-200,160L-240,160L-240,180L-280,180L-280,200L-320,200L-320,220L-360,220L-360,240L-400,240L-400,260L-440,260L-440,280L-460,280L-460,300L-480,300L-480,880L-460,880L-460,900L-440,900L-440,920L-400,920L-400,940L-360,940L-360,960L-320,960L-320,980L-280,980L-280,1000L-240,1000L-240,1020L-200,1020L-200,1040L-160,1040L-160,1060L-120,1060L-120,1080L-80,1080L-80,1100L-40,1100L-40,1120L0,1120L0,1140L80,1140L80,1120L120,1120L120,1100L160,1100L160,1080L200,1080L200,1060L240,1060L240,1040L280,1040L280,1020L320,1020L320,1000L360,1000L360,980L400,980L400,960L440,960L440,940L480,940L480,920L520,920L520,900L540,900L540,880L560,880L560,300L540,300L540,280L520,280L520,260L480,260L480,240L440,240L440,220L400,220L400,200L360,200L360,180L320,180L320,160L280,160L280,140L240,140L240,120L200,120L200,100L160,100L160,80L120,80L120,60L80,60L80,40L0,40Z" style="fill:white;fill-rule:nonzero;"/>
    </g>
    <g transform="matrix(1,0,0,1,920,740)">
        <path d="M0,0L80,0L80,200L60,200L60,220L40,220L40,200L20,200L20,20L0,20L0,0Z" style="fill:white;fill-rule:nonzero;"/>
    </g>
    <g transform="matrix(1,0,0,1,1100,660)">
        <path d="M0,0L80,0L80,200L60,200L60,220L40,220L40,200L20,200L20,20L0,20L0,0Z" style="fill:white;fill-rule:nonzero;"/>
    </g>
    <g transform="matrix(1,0,0,1,1200,520)">
        <path d="M0,0L40,0L40,400L0,400L0,380L20,380L20,20L0,20L0,0Z" style="fill:white;fill-rule:nonzero;"/>
    </g>
    <g transform="matrix(1,0,0,1,820,720)">
        <rect x="0" y="0" width="20" height="360" style="fill:white;fill-rule:nonzero;"/>
    </g>
    <g transform="matrix(1,0,0,1,700,660)">
        <rect x="0" y="0" width="120" height="20" style="fill:white;fill-rule:nonzero;"/>
    </g>
    <g transform="matrix(1,0,0,1,840,1080)">
        <rect x="0" y="0" width="40" height="20" style="fill:white;fill-rule:nonzero;"/>
    </g>
    <g transform="matrix(1,0,0,1,880,1060)">
        <rect x="0" y="0" width="40" height="20" style="fill:white;fill-rule:nonzero;"/>
    </g>
    <g transform="matrix(1,0,0,1,920,1040)">
        <rect x="0" y="0" width="40" height="20" style="fill:white;fill-rule:nonzero;"/>
    </g>
    <g transform="matrix(1,0,0,1,960,1020)">
        <rect x="0" y="0" width="40" height="20" style="fill:white;fill-rule:nonzero;"/>
    </g>
    <g transform="matrix(1,0,0,1,1000,1000)">
        <rect x="0" y="0" width="40" height="20" style="fill:white;fill-rule:nonzero;"/>
    </g>
    <g transform="matrix(1,0,0,1,1040,980)">
        <rect x="0" y="0" width="40" height="20" style="fill:white;fill-rule:nonzero;"/>
    </g>
    <g transform="matrix(1,0,0,1,1080,960)">
        <rect x="0" y="0" width="40" height="20" style="fill:white;fill-rule:nonzero;"/>
    </g>
    <g transform="matrix(1,0,0,1,1120,940)">
        <rect x="0" y="0" width="40" height="20" style="fill:white;fill-rule:nonzero;"/>
    </g>
    <g transform="matrix(1,0,0,1,1160,920)">
        <rect x="0" y="0" width="40" height="20" style="fill:white;fill-rule:nonzero;"/>
    </g>
    <g transform="matrix(1,0,0,1,880,780)">
        <rect x="0" y="0" width="20" height="40" style="fill:white;fill-rule:nonzero;"/>
    </g>
    <g transform="matrix(1,0,0,1,1060,700)">
        <rect x="0" y="0" width="20" height="40" style="fill:white;fill-rule:nonzero;"/>
    </g>
    <g transform="matrix(1,0,0,1,840,700)">
        <rect x="0" y="0" width="40" height="20" style="fill:white;fill-rule:nonzero;"/>
    </g>
    <g transform="matrix(1,0,0,1,880,680)">
        <rect x="0" y="0" width="40" height="20" style="fill:white;fill-rule:nonzero;"/>
    </g>
    <g transform="matrix(1,0,0,1,920,660)">
        <rect x="0" y="0" width="40" height="20" style="fill:white;fill-rule:nonzero;"/>
    </g>
    <g transform="matrix(1,0,0,1,960,640)">
        <rect x="0" y="0" width="40" height="20" style="fill:white;fill-rule:nonzero;"/>
    </g>
    <g transform="matrix(1,0,0,1,820,640)">
        <rect x="0" y="0" width="40" height="20" style="fill:white;fill-rule:nonzero;"/>
    </g>
    <g transform="matrix(1,0,0,1,660,640)">
        <rect x="0" y="0" width="40" height="20" style="fill:white;fill-rule:nonzero;"/>
    </g>
    <g transform="matrix(1,0,0,1,1000,620)">
        <rect x="0" y="0" width="40" height="20" style="fill:white;fill-rule:nonzero;"/>
    </g>
    <g transform="matrix(1,0,0,1,860,620)">
        <rect x="0" y="0" width="40" height="20" style="fill:white;fill-rule:nonzero;"/>
    </g>
    <g transform="matrix(1,0,0,1,620,620)">
        <rect x="0" y="0" width="40" height="20" style="fill:white;fill-rule:nonzero;"/>
    </g>
    <g transform="matrix(1,0,0,1,1040,600)">
        <rect x="0" y="0" width="40" height="20" style="fill:white;fill-rule:nonzero;"/>
    </g>
    <g transform="matrix(1,0,0,1,900,600)">
        <rect x="0" y="0" width="40" height="20" style="fill:white;fill-rule:nonzero;"/>
    </g>
    <g transform="matrix(1,0,0,1,580,600)">
        <rect x="0" y="0" width="40" height="20" style="fill:white;fill-rule:nonzero;"/>
    </g>
    <g transform="matrix(1,0,0,1,1080,580)">
        <rect x="0" y="0" width="40" height="20" style="fill:white;fill-rule:nonzero;"/>
    </g>
    <g transform="matrix(1,0,0,1,940,580)">
        <rect x="0" y="0" width="40" height="20" style="fill:white;fill-rule:nonzero;"/>
    </g>
    <g transform="matrix(1,0,0,1,540,580)">
        <rect x="0" y="0" width="40" height="20" style="fill:white;fill-rule:nonzero;"/>
    </g>
    <g transform="matrix(1,0,0,1,1120,560)">
        <rect x="0" y="0" width="40" height="20" style="fill:white;fill-rule:nonzero;"/>
    </g>
    <g transform="matrix(1,0,0,1,980,560)">
        <rect x="0" y="0" width="40" height="20" style="fill:white;fill-rule:nonzero;"/>
    </g>
    <g transform="matrix(1,0,0,1,500,560)">
        <rect x="0" y="0" width="40" height="20" style="fill:white;fill-rule:nonzero;"/>
    </g>
    <g transform="matrix(1,0,0,1,1160,540)">
        <rect x="0" y="0" width="40" height="20" style="fill:white;fill-rule:nonzero;"/>
    </g>
    <g transform="matrix(1,0,0,1,1020,540)">
        <rect x="0" y="0" width="40" height="20" style="fill:white;fill-rule:nonzero;"/>
    </g>
    <g transform="matrix(1,0,0,1,460,540)">
        <rect x="0" y="0" width="40" height="20" style="fill:white;fill-rule:nonzero;"/>
    </g>
    <g transform="matrix(1,0,0,1,1060,520)">
        <rect x="0" y="0" width="40" height="20" style="fill:white;fill-rule:nonzero;"/>
    </g>
    <g transform="matrix(1,0,0,1,420,520)">
        <rect x="0" y="0" width="40" height="20" style="fill:white;fill-rule:nonzero;"/>
    </g>
    <g transform="matrix(1,0,0,1,1100,500)">
        <rect x="0" y="0" width="40" height="20" style="fill:white;fill-rule:nonzero;"/>
    </g>
    <g transform="matrix(1,0,0,1,380,500)">
        <rect x="0" y="0" width="40" height="20" style="fill:white;fill-rule:nonzero;"/>
    </g>
    <g transform="matrix(1,0,0,1,1140,480)">
        <rect x="0" y="0" width="40" height="20" style="fill:white;fill-rule:nonzero;"/>
    </g>
    <g transform="matrix(1,0,0,1,340,480)">
        <rect x="0" y="0" width="40" height="20" style="fill:white;fill-rule:nonzero;"/>
    </g>
    <g transform="matrix(1,0,0,1,1180,460)">
        <rect x="0" y="0" width="40" height="20" style="fill:white;fill-rule:nonzero;"/>
    </g>
    <g transform="matrix(1,0,0,1,300,460)">
        <rect x="0" y="0" width="40" height="20" style="fill:white;fill-rule:nonzero;"/>
    </g>
    <g transform="matrix(1,0,0,1,1220,440)">
        <rect x="0" y="0" width="40" height="20" style="fill:white;fill-rule:nonzero;"/>
    </g>
    <g transform="matrix(1,0,0,1,260,440)">
        <rect x="0" y="0" width="40" height="20" style="fill:white;fill-rule:nonzero;"/>
    </g>
    <g transform="matrix(1,0,0,1,440,880)">
        <rect x="0" y="0" width="20" height="20" style="fill:white;fill-rule:nonzero;"/>
    </g>
    <g transform="matrix(1,0,0,1,500,820)">
        <rect x="0" y="0" width="20" height="20" style="fill:white;fill-rule:nonzero;"/>
    </g>
    <g transform="matrix(1,0,0,1,380,800)">
        <rect x="0" y="0" width="20" height="20" style="fill:white;fill-rule:nonzero;"/>
    </g>
    <g transform="matrix(1,0,0,1,900,760)">
        <rect x="0" y="0" width="20" height="20" style="fill:white;fill-rule:nonzero;"/>
    </g>
    <g transform="matrix(1,0,0,1,440,740)">
        <rect x="0" y="0" width="20" height="20" style="fill:white;fill-rule:nonzero;"/>
    </g>
    <g transform="matrix(1,0,0,1,1080,680)">
        <rect x="0" y="0" width="20" height="20" style="fill:white;fill-rule:nonzero;"/>
    </g>
</svg>
